<svg xmlns="http://www.w3.org/2000/svg" xmlns:xlink="http://www.w3.org/1999/xlink" width="500" zoomAndPan="magnify" viewBox="0 0 375 374.999991" height="500" preserveAspectRatio="xMidYMid meet" version="1.0"><defs><g/><clipPath id="4b4c0004b6"><path d="M 98 117 L 247 117 L 247 237.164062 L 98 237.164062 Z M 98 117 " clip-rule="nonzero"/></clipPath><clipPath id="bcd8c1a8cc"><path d="M 156.519531 134.679688 L 190.65625 134.679688 L 190.65625 168.183594 L 156.519531 168.183594 Z M 156.519531 134.679688 " clip-rule="nonzero"/></clipPath></defs><g clip-path="url(#4b4c0004b6)"><path fill="#000000" d="M 239.925781 164.789062 C 232.703125 152.039062 222.835938 140.9375 211.210938 132.070312 C 199.738281 123.332031 184.824219 115.703125 169.714844 117.75 C 162.054688 118.734375 154.433594 122.097656 149.128906 127.910156 C 143.335938 133.804688 141.601562 142.546875 139.15625 150.605469 C 135.757812 153.050781 131.699219 154.738281 127.792969 156.183594 C 127.042969 156.460938 126.285156 156.738281 125.535156 157.007812 C 119.859375 159.074219 113.988281 161.214844 109.0625 165.1875 C 101.507812 171.296875 97.292969 181.476562 98.328125 191.117188 C 99.359375 200.773438 105.636719 209.832031 114.320312 214.191406 C 118.34375 216.214844 122.882812 217.242188 127.4375 217.242188 C 129.945312 217.242188 132.460938 216.90625 134.894531 216.285156 L 138.898438 237.101562 L 141.925781 236.335938 C 163.375 230.910156 185.121094 230.910156 206.570312 236.335938 L 209.597656 237.101562 L 213.132812 218.710938 C 222.480469 219.101562 231.90625 215.277344 238.148438 208.195312 C 249.550781 195.417969 248.0625 178.75 239.90625 164.785156 Z M 204.992188 229.886719 C 184.578125 225.199219 163.9375 225.199219 143.523438 229.886719 L 139.210938 207.441406 C 139.273438 207.453125 139.339844 207.472656 139.40625 207.488281 C 147.8125 209.414062 156.359375 205.84375 162.3125 200.101562 C 169.859375 199.476562 178.011719 199.453125 186.597656 200.039062 C 193.511719 203.359375 200.871094 206.605469 208.796875 206.351562 C 209.042969 206.351562 209.285156 206.320312 209.535156 206.308594 L 205.003906 229.886719 Z M 238.699219 192.769531 C 236.3125 204.101562 225.738281 212.332031 214.308594 212.691406 L 215.761719 205.160156 C 223.066406 202.792969 229.425781 197.082031 231.515625 189.941406 C 223.648438 198.90625 211.789062 202.832031 200.734375 198.667969 C 195.148438 196.820312 189.730469 193.558594 184.199219 191.242188 C 180.410156 189.730469 176.375 188.828125 172.304688 188.648438 C 179.898438 179.960938 189.535156 173.898438 200.710938 170.082031 C 188.429688 170.296875 176.074219 176.113281 167.289062 184.828125 C 164.296875 187.699219 161.59375 190.652344 158.835938 193.230469 C 147.761719 204.796875 131.621094 203.523438 122.816406 189.167969 C 123.039062 195.613281 127.128906 201.535156 132.730469 204.898438 L 133.804688 210.496094 C 128.199219 212.027344 122.074219 211.476562 116.984375 208.917969 C 110.046875 205.4375 105.03125 198.195312 104.210938 190.484375 C 103.390625 182.78125 106.753906 174.648438 112.785156 169.765625 C 116.945312 166.414062 122.109375 164.53125 127.574219 162.542969 C 128.339844 162.265625 129.101562 161.980469 129.863281 161.707031 C 131.769531 160.996094 133.808594 160.195312 135.847656 159.25 C 133.59375 163.59375 130.375 167.164062 125.082031 169.121094 C 132.867188 169.800781 139.167969 163.097656 142.433594 156.660156 C 147.382812 146.664062 148.066406 134.105469 158.558594 128.292969 C 174.535156 118.882812 193.417969 127.132812 206.824219 137.804688 C 221.296875 149.007812 243.257812 173.40625 238.714844 192.75 Z M 238.699219 192.769531 " fill-opacity="1" fill-rule="nonzero"/></g><g clip-path="url(#bcd8c1a8cc)"><path fill="#000000" d="M 190.652344 151.882812 C 190.464844 142.386719 182.605469 134.679688 173.109375 134.679688 C 164.804688 134.679688 157.988281 140.558594 156.519531 148.371094 C 157.039062 146.6875 158.054688 144.523438 160.027344 142.6875 C 163.890625 139.082031 166.820312 138.695312 166.820312 138.695312 C 158.019531 143.328125 155.757812 154.308594 158.933594 160.863281 C 160.78125 163.792969 163.480469 166.148438 166.667969 167.578125 C 167.558594 167.792969 168.421875 167.832031 168.402344 166.628906 L 168.410156 166.628906 C 167.871094 164.570312 166.675781 160.632812 166.085938 160.082031 C 165.316406 159.359375 163.574219 159.75 162.875 158.878906 C 162.175781 158 159.59375 146.941406 159.59375 146.941406 C 159.59375 146.941406 159.824219 146.675781 160.0625 146.765625 C 160.300781 146.875 163.164062 156.734375 163.449219 156.957031 C 163.738281 157.179688 163.6875 157.050781 163.855469 157.058594 C 163.976562 157.023438 164.148438 157 164.183594 156.539062 C 164.222656 156.070312 161.027344 146.867188 161.019531 146.714844 C 161.003906 146.558594 160.96875 146.078125 161.328125 146.140625 C 161.6875 146.199219 165.078125 155.777344 165.285156 156.015625 C 165.5 156.25 165.625 156.195312 165.78125 156.179688 C 165.890625 156.09375 165.984375 156.085938 165.984375 155.785156 C 165.992188 155.488281 162.257812 146.019531 162.488281 145.746094 C 162.71875 145.464844 163.011719 145.851562 163.105469 145.984375 C 163.199219 146.113281 166.839844 155.164062 167.171875 155.488281 C 167.496094 155.8125 167.632812 155.726562 167.746094 155.683594 C 167.882812 155.566406 167.933594 155.691406 168.011719 155.339844 C 168.085938 154.976562 163.761719 145.652344 163.867188 145.421875 C 163.984375 145.199219 164.34375 145.257812 164.34375 145.257812 C 164.34375 145.257812 169.648438 155.339844 169.699219 156.4375 C 169.746094 157.546875 168.144531 158.476562 168.042969 159.511719 C 167.957031 160.3125 169.839844 164.621094 170.921875 166.835938 C 171.152344 167.253906 171.539062 167.824219 172.050781 168.039062 C 172.90625 168.40625 173.253906 168.0625 173.257812 167.195312 L 173.359375 157.46875 C 173.324219 157.136719 173.265625 156.8125 173.152344 156.574219 C 173.023438 156.324219 172.835938 156.128906 172.664062 156 C 170.964844 155.429688 169.71875 153.785156 169.660156 150.855469 C 169.597656 147.140625 171.460938 142.765625 173.871094 142.765625 C 176.28125 142.765625 178.316406 147.140625 178.390625 150.855469 C 178.449219 153.617188 177.398438 155.238281 175.871094 155.890625 C 175.691406 156.050781 175.445312 156.296875 175.296875 156.589844 C 175.195312 156.800781 175.144531 157.164062 175.128906 157.527344 L 175.503906 167.003906 L 175.511719 167.003906 C 175.511719 167.003906 175.8125 167.945312 176.324219 167.917969 C 176.585938 167.902344 176.757812 167.578125 176.863281 167.269531 L 176.855469 167.269531 C 176.855469 167.269531 176.894531 167.140625 176.964844 166.910156 C 176.996094 166.773438 177.007812 166.679688 177.007812 166.679688 L 177.03125 166.6875 C 177.914062 163.707031 181.894531 150.265625 182.195312 148.953125 C 182.542969 147.480469 183.464844 144.113281 184.464844 144.679688 C 185.464844 145.25 185.859375 149.503906 185.261719 154.152344 C 184.65625 158.800781 183.5625 161.554688 182.441406 162.714844 C 181.3125 163.867188 180.003906 163.089844 179.476562 164.527344 C 179.125 165.503906 178.878906 166.601562 178.757812 167.210938 C 178.792969 167.414062 178.929688 167.875 179.40625 167.945312 C 179.648438 167.988281 179.929688 167.929688 180.175781 167.859375 C 180.371094 167.773438 180.570312 167.695312 180.765625 167.601562 C 186.714844 164.914062 190.789062 158.894531 190.652344 151.882812 " fill-opacity="1" fill-rule="evenodd"/></g><g fill="#000000" fill-opacity="1"><g transform="translate(94.287639, 260.728105)"><g><path d="M 1.625 -22.40625 L 8.125 -22.40625 C 11.238281 -22.40625 13.898438 -21.335938 16.109375 -19.203125 C 18.316406 -17.078125 19.421875 -14.414062 19.421875 -11.21875 C 19.421875 -7.988281 18.316406 -5.3125 16.109375 -3.1875 C 13.910156 -1.0625 11.25 0 8.125 0 L 1.625 0 Z M 6.734375 -4.5625 L 7.515625 -4.5625 C 9.378906 -4.5625 10.90625 -5.191406 12.09375 -6.453125 C 13.28125 -7.710938 13.882812 -9.289062 13.90625 -11.1875 C 13.90625 -13.09375 13.3125 -14.675781 12.125 -15.9375 C 10.9375 -17.207031 9.398438 -17.84375 7.515625 -17.84375 L 6.734375 -17.84375 Z M 6.734375 -4.5625 "/></g></g></g><g fill="#000000" fill-opacity="1"><g transform="translate(114.329842, 260.728105)"><g><path d="M 0.78125 -13.21875 L 0.78125 -18.28125 L 7.171875 -22.40625 L 9.59375 -22.40625 L 9.59375 0 L 4.484375 0 L 4.484375 -15.609375 Z M 0.78125 -13.21875 "/></g></g></g><g fill="#000000" fill-opacity="1"><g transform="translate(125.545869, 260.728105)"><g><path d="M 2.3125 -22.1875 C 2.78125 -22.601562 3.320312 -22.8125 3.9375 -22.8125 C 4.550781 -22.8125 5.09375 -22.601562 5.5625 -22.1875 C 6.03125 -21.769531 6.265625 -21.300781 6.265625 -20.78125 L 6.265625 -20.671875 C 6.265625 -20.304688 6.125 -19.472656 5.84375 -18.171875 C 5.570312 -16.878906 5.289062 -15.675781 5 -14.5625 L 4.59375 -12.90625 L 2.765625 -12.90625 C 2.003906 -17.25 1.625 -19.835938 1.625 -20.671875 L 1.625 -20.78125 C 1.625 -21.300781 1.851562 -21.769531 2.3125 -22.1875 Z M 2.3125 -22.1875 "/></g></g></g><g fill="#000000" fill-opacity="1"><g transform="translate(133.44869, 260.728105)"><g><path d="M 7.6875 -14.34375 C 8.476562 -14.34375 9.265625 -14.25 10.046875 -14.0625 C 10.828125 -13.882812 11.40625 -13.707031 11.78125 -13.53125 L 12.359375 -13.25 L 10.78125 -10.109375 C 9.695312 -10.679688 8.664062 -10.96875 7.6875 -10.96875 C 7.144531 -10.96875 6.757812 -10.910156 6.53125 -10.796875 C 6.300781 -10.679688 6.1875 -10.457031 6.1875 -10.125 C 6.1875 -10.050781 6.195312 -9.976562 6.21875 -9.90625 C 6.238281 -9.832031 6.273438 -9.765625 6.328125 -9.703125 C 6.378906 -9.640625 6.425781 -9.585938 6.46875 -9.546875 C 6.519531 -9.503906 6.597656 -9.453125 6.703125 -9.390625 C 6.816406 -9.335938 6.90625 -9.296875 6.96875 -9.265625 C 7.03125 -9.242188 7.132812 -9.203125 7.28125 -9.140625 C 7.425781 -9.085938 7.535156 -9.046875 7.609375 -9.015625 C 7.679688 -8.992188 7.800781 -8.957031 7.96875 -8.90625 C 8.144531 -8.851562 8.273438 -8.816406 8.359375 -8.796875 C 8.921875 -8.628906 9.410156 -8.445312 9.828125 -8.25 C 10.242188 -8.050781 10.679688 -7.78125 11.140625 -7.4375 C 11.609375 -7.09375 11.96875 -6.65625 12.21875 -6.125 C 12.46875 -5.601562 12.59375 -5.007812 12.59375 -4.34375 C 12.59375 -1.175781 10.394531 0.40625 6 0.40625 C 5.007812 0.40625 4.0625 0.253906 3.15625 -0.046875 C 2.257812 -0.359375 1.613281 -0.671875 1.21875 -0.984375 L 0.625 -1.46875 L 2.578125 -4.75 C 2.722656 -4.625 2.910156 -4.472656 3.140625 -4.296875 C 3.378906 -4.128906 3.804688 -3.894531 4.421875 -3.59375 C 5.035156 -3.300781 5.570312 -3.15625 6.03125 -3.15625 C 7.019531 -3.15625 7.515625 -3.488281 7.515625 -4.15625 C 7.515625 -4.457031 7.390625 -4.691406 7.140625 -4.859375 C 6.890625 -5.035156 6.457031 -5.234375 5.84375 -5.453125 C 5.238281 -5.671875 4.765625 -5.875 4.421875 -6.0625 C 3.554688 -6.507812 2.867188 -7.019531 2.359375 -7.59375 C 1.859375 -8.164062 1.609375 -8.921875 1.609375 -9.859375 C 1.609375 -11.265625 2.15625 -12.363281 3.25 -13.15625 C 4.34375 -13.945312 5.820312 -14.34375 7.6875 -14.34375 Z M 7.6875 -14.34375 "/></g></g></g><g fill="#000000" fill-opacity="1"><g transform="translate(146.810159, 260.728105)"><g/></g></g><g fill="#000000" fill-opacity="1"><g transform="translate(154.224141, 260.728105)"><g><path d="M 1.625 -22.40625 L 8.578125 -22.40625 C 10.679688 -22.40625 12.359375 -21.957031 13.609375 -21.0625 C 14.859375 -20.164062 15.484375 -18.710938 15.484375 -16.703125 C 15.484375 -14.453125 14.550781 -12.847656 12.6875 -11.890625 C 15.875 -11.328125 17.46875 -9.445312 17.46875 -6.25 C 17.46875 -4.363281 16.8125 -2.847656 15.5 -1.703125 C 14.195312 -0.566406 12.40625 0 10.125 0 L 1.625 0 Z M 6.734375 -13.625 L 7.140625 -13.625 C 8.285156 -13.625 9.132812 -13.820312 9.6875 -14.21875 C 10.25 -14.625 10.53125 -15.28125 10.53125 -16.1875 C 10.53125 -17.707031 9.398438 -18.46875 7.140625 -18.46875 L 6.734375 -18.46875 Z M 6.734375 -3.9375 L 8.34375 -3.9375 C 10.832031 -3.9375 12.078125 -4.769531 12.078125 -6.4375 C 12.078125 -7.425781 11.765625 -8.140625 11.140625 -8.578125 C 10.515625 -9.015625 9.582031 -9.234375 8.34375 -9.234375 L 6.734375 -9.234375 Z M 6.734375 -3.9375 "/></g></g></g><g fill="#000000" fill-opacity="1"><g transform="translate(172.311009, 260.728105)"><g><path d="M 1.625 0 L 1.625 -13.9375 L 6.4375 -13.9375 L 6.4375 -11.921875 L 6.484375 -11.921875 C 6.523438 -11.992188 6.585938 -12.082031 6.671875 -12.1875 C 6.753906 -12.300781 6.929688 -12.492188 7.203125 -12.765625 C 7.472656 -13.035156 7.757812 -13.28125 8.0625 -13.5 C 8.375 -13.71875 8.773438 -13.910156 9.265625 -14.078125 C 9.753906 -14.253906 10.25 -14.34375 10.75 -14.34375 C 11.28125 -14.34375 11.796875 -14.269531 12.296875 -14.125 C 12.804688 -13.976562 13.179688 -13.832031 13.421875 -13.6875 L 13.796875 -13.46875 L 11.78125 -9.390625 C 11.1875 -9.898438 10.351562 -10.15625 9.28125 -10.15625 C 8.707031 -10.15625 8.210938 -10.023438 7.796875 -9.765625 C 7.378906 -9.515625 7.082031 -9.207031 6.90625 -8.84375 C 6.738281 -8.488281 6.617188 -8.179688 6.546875 -7.921875 C 6.472656 -7.671875 6.4375 -7.472656 6.4375 -7.328125 L 6.4375 0 Z M 1.625 0 "/></g></g></g><g fill="#000000" fill-opacity="1"><g transform="translate(185.835419, 260.728105)"><g><path d="M 6.171875 -13.9375 L 6.171875 -7.3125 C 6.171875 -5.925781 6.375 -4.941406 6.78125 -4.359375 C 7.195312 -3.785156 7.90625 -3.5 8.90625 -3.5 C 9.90625 -3.5 10.613281 -3.785156 11.03125 -4.359375 C 11.445312 -4.941406 11.65625 -5.925781 11.65625 -7.3125 L 11.65625 -13.9375 L 16.453125 -13.9375 L 16.453125 -6.140625 C 16.453125 -3.816406 15.847656 -2.144531 14.640625 -1.125 C 13.441406 -0.101562 11.53125 0.40625 8.90625 0.40625 C 6.28125 0.40625 4.363281 -0.101562 3.15625 -1.125 C 1.957031 -2.144531 1.359375 -3.816406 1.359375 -6.140625 L 1.359375 -13.9375 Z M 6.171875 -13.9375 "/></g></g></g><g fill="#000000" fill-opacity="1"><g transform="translate(203.650713, 260.728105)"><g><path d="M 1.625 0 L 1.625 -13.9375 L 6.4375 -13.9375 L 6.4375 -12.46875 L 6.484375 -12.46875 C 7.734375 -13.71875 9.066406 -14.34375 10.484375 -14.34375 C 11.171875 -14.34375 11.851562 -14.25 12.53125 -14.0625 C 13.207031 -13.882812 13.859375 -13.601562 14.484375 -13.21875 C 15.109375 -12.84375 15.613281 -12.304688 16 -11.609375 C 16.394531 -10.910156 16.59375 -10.097656 16.59375 -9.171875 L 16.59375 0 L 11.78125 0 L 11.78125 -7.875 C 11.78125 -8.601562 11.550781 -9.238281 11.09375 -9.78125 C 10.632812 -10.320312 10.03125 -10.59375 9.28125 -10.59375 C 8.5625 -10.59375 7.90625 -10.3125 7.3125 -9.75 C 6.726562 -9.1875 6.4375 -8.5625 6.4375 -7.875 L 6.4375 0 Z M 1.625 0 "/></g></g></g><g fill="#000000" fill-opacity="1"><g transform="translate(221.60179, 260.728105)"><g><path d="M 9.046875 -10.40625 C 8.140625 -10.40625 7.359375 -10.066406 6.703125 -9.390625 C 6.054688 -8.722656 5.734375 -7.921875 5.734375 -6.984375 C 5.734375 -6.023438 6.054688 -5.207031 6.703125 -4.53125 C 7.359375 -3.863281 8.140625 -3.53125 9.046875 -3.53125 C 9.472656 -3.53125 9.878906 -3.582031 10.265625 -3.6875 C 10.660156 -3.800781 10.953125 -3.910156 11.140625 -4.015625 L 11.375 -4.1875 L 13.015625 -0.84375 C 12.878906 -0.75 12.695312 -0.632812 12.46875 -0.5 C 12.25 -0.363281 11.734375 -0.179688 10.921875 0.046875 C 10.117188 0.285156 9.257812 0.40625 8.34375 0.40625 C 6.289062 0.40625 4.488281 -0.3125 2.9375 -1.75 C 1.394531 -3.1875 0.625 -4.910156 0.625 -6.921875 C 0.625 -8.953125 1.394531 -10.695312 2.9375 -12.15625 C 4.488281 -13.613281 6.289062 -14.34375 8.34375 -14.34375 C 9.257812 -14.34375 10.109375 -14.234375 10.890625 -14.015625 C 11.671875 -13.796875 12.222656 -13.578125 12.546875 -13.359375 L 13.015625 -13.03125 L 11.375 -9.75 C 10.78125 -10.1875 10.003906 -10.40625 9.046875 -10.40625 Z M 9.046875 -10.40625 "/></g></g></g><g fill="#000000" fill-opacity="1"><g transform="translate(234.936101, 260.728105)"><g><path d="M 1.625 0 L 1.625 -23.359375 L 6.4375 -23.359375 L 6.4375 -12.46875 L 6.484375 -12.46875 C 7.734375 -13.71875 9.066406 -14.34375 10.484375 -14.34375 C 11.171875 -14.34375 11.851562 -14.25 12.53125 -14.0625 C 13.207031 -13.882812 13.859375 -13.601562 14.484375 -13.21875 C 15.109375 -12.84375 15.613281 -12.304688 16 -11.609375 C 16.394531 -10.910156 16.59375 -10.097656 16.59375 -9.171875 L 16.59375 0 L 11.78125 0 L 11.78125 -7.875 C 11.78125 -8.601562 11.550781 -9.238281 11.09375 -9.78125 C 10.632812 -10.320312 10.03125 -10.59375 9.28125 -10.59375 C 8.5625 -10.59375 7.90625 -10.3125 7.3125 -9.75 C 6.726562 -9.1875 6.4375 -8.5625 6.4375 -7.875 L 6.4375 0 Z M 1.625 0 "/></g></g></g><g fill="#000000" fill-opacity="1"><g transform="translate(227.391632, 233.767381)"><g><path d="M 2.59375 -2.84375 C 2.632812 -2.914062 2.695312 -2.96875 2.78125 -3 C 2.863281 -3.039062 2.953125 -3.046875 3.046875 -3.015625 C 3.140625 -2.984375 3.203125 -2.921875 3.234375 -2.828125 C 3.273438 -2.742188 3.273438 -2.65625 3.234375 -2.5625 C 3.128906 -2.3125 2.972656 -2.046875 2.765625 -1.765625 C 2.554688 -1.484375 2.28125 -1.253906 1.9375 -1.078125 C 1.851562 -1.023438 1.753906 -0.976562 1.640625 -0.9375 C 1.140625 -0.769531 0.664062 -0.828125 0.21875 -1.109375 C -0.03125 -1.273438 -0.25 -1.507812 -0.4375 -1.8125 C -0.457031 -1.820312 -0.472656 -1.84375 -0.484375 -1.875 C -0.484375 -1.875 -0.484375 -1.882812 -0.484375 -1.90625 C -0.640625 -2.1875 -0.742188 -2.519531 -0.796875 -2.90625 C -0.835938 -3.289062 -0.789062 -3.679688 -0.65625 -4.078125 C -0.53125 -4.484375 -0.320312 -4.851562 -0.03125 -5.1875 C 0.164062 -5.40625 0.375 -5.582031 0.59375 -5.71875 C 0.8125 -5.851562 1.019531 -5.914062 1.21875 -5.90625 C 1.582031 -5.914062 1.851562 -5.78125 2.03125 -5.5 C 2.15625 -5.289062 2.207031 -5.03125 2.1875 -4.71875 C 2.175781 -4.414062 2.09375 -4.097656 1.9375 -3.765625 C 1.6875 -3.242188 1.410156 -2.832031 1.109375 -2.53125 C 0.804688 -2.238281 0.546875 -2.03125 0.328125 -1.90625 C 0.410156 -1.820312 0.492188 -1.742188 0.578125 -1.671875 C 0.835938 -1.523438 1.113281 -1.503906 1.40625 -1.609375 C 1.726562 -1.703125 1.984375 -1.875 2.171875 -2.125 C 2.367188 -2.375 2.507812 -2.613281 2.59375 -2.84375 Z M -0.09375 -3 C -0.0820312 -2.832031 -0.0507812 -2.660156 0 -2.484375 C 0.175781 -2.609375 0.382812 -2.796875 0.625 -3.046875 C 0.875 -3.304688 1.101562 -3.648438 1.3125 -4.078125 C 1.414062 -4.328125 1.476562 -4.539062 1.5 -4.71875 C 1.519531 -4.90625 1.503906 -5.046875 1.453125 -5.140625 C 1.429688 -5.140625 1.40625 -5.15625 1.375 -5.1875 C 1.34375 -5.21875 1.289062 -5.226562 1.21875 -5.21875 C 1.164062 -5.21875 1.09375 -5.191406 1 -5.140625 C 0.925781 -5.109375 0.84375 -5.054688 0.75 -4.984375 C 0.664062 -4.910156 0.578125 -4.820312 0.484375 -4.71875 C 0.253906 -4.476562 0.0859375 -4.203125 -0.015625 -3.890625 C -0.117188 -3.585938 -0.144531 -3.289062 -0.09375 -3 Z M -0.09375 -3 "/></g></g></g><g fill="#000000" fill-opacity="1"><g transform="translate(231.225507, 231.739169)"><g><path d="M 3.078125 -5.75 C 3.171875 -5.738281 3.25 -5.707031 3.3125 -5.65625 C 3.375 -5.601562 3.410156 -5.535156 3.421875 -5.453125 L 3.953125 -1.359375 C 3.953125 -1.265625 3.921875 -1.179688 3.859375 -1.109375 C 3.804688 -1.035156 3.738281 -0.992188 3.65625 -0.984375 C 3.550781 -0.960938 3.457031 -0.984375 3.375 -1.046875 C 3.300781 -1.109375 3.265625 -1.1875 3.265625 -1.28125 L 3.015625 -3.296875 C 2.890625 -2.859375 2.742188 -2.421875 2.578125 -1.984375 C 2.410156 -1.546875 2.207031 -1.171875 1.96875 -0.859375 C 1.738281 -0.546875 1.472656 -0.347656 1.171875 -0.265625 C 1.117188 -0.253906 1.066406 -0.242188 1.015625 -0.234375 C 0.679688 -0.203125 0.40625 -0.359375 0.1875 -0.703125 C 0.03125 -0.941406 -0.0664062 -1.273438 -0.109375 -1.703125 C -0.160156 -2.140625 -0.128906 -2.601562 -0.015625 -3.09375 C 0.0859375 -3.59375 0.28125 -4.0625 0.5625 -4.5 C 0.90625 -5.03125 1.320312 -5.328125 1.8125 -5.390625 C 1.988281 -5.410156 2.148438 -5.398438 2.296875 -5.359375 C 2.453125 -5.328125 2.585938 -5.28125 2.703125 -5.21875 C 2.722656 -5.28125 2.734375 -5.359375 2.734375 -5.453125 C 2.773438 -5.648438 2.890625 -5.75 3.078125 -5.75 Z M 0.921875 -0.921875 C 1.140625 -0.972656 1.410156 -1.285156 1.734375 -1.859375 C 2.066406 -2.429688 2.347656 -3.3125 2.578125 -4.5 C 2.492188 -4.550781 2.390625 -4.597656 2.265625 -4.640625 C 2.148438 -4.691406 2.023438 -4.707031 1.890625 -4.6875 C 1.859375 -4.6875 1.828125 -4.679688 1.796875 -4.671875 C 1.566406 -4.609375 1.347656 -4.425781 1.140625 -4.125 C 0.910156 -3.738281 0.75 -3.34375 0.65625 -2.9375 C 0.5625 -2.53125 0.53125 -2.15625 0.5625 -1.8125 C 0.601562 -1.476562 0.671875 -1.222656 0.765625 -1.046875 C 0.785156 -1.023438 0.8125 -0.992188 0.84375 -0.953125 C 0.875 -0.921875 0.898438 -0.910156 0.921875 -0.921875 Z M 0.921875 -0.921875 "/></g></g></g><g fill="#000000" fill-opacity="1"><g transform="translate(235.803486, 230.448872)"><g><path d="M 3.578125 -5.203125 C 3.671875 -5.210938 3.753906 -5.1875 3.828125 -5.125 C 3.898438 -5.0625 3.941406 -4.984375 3.953125 -4.890625 C 3.960938 -4.796875 3.9375 -4.710938 3.875 -4.640625 C 3.8125 -4.566406 3.734375 -4.523438 3.640625 -4.515625 L 2.375 -4.40625 L 2.046875 -0.59375 C 2.023438 -0.394531 1.921875 -0.285156 1.734375 -0.265625 C 1.710938 -0.265625 1.691406 -0.269531 1.671875 -0.28125 C 1.578125 -0.28125 1.5 -0.316406 1.4375 -0.390625 C 1.382812 -0.460938 1.359375 -0.546875 1.359375 -0.640625 L 1.671875 -4.34375 L 0.5 -4.234375 C 0.40625 -4.222656 0.320312 -4.25 0.25 -4.3125 C 0.175781 -4.375 0.132812 -4.453125 0.125 -4.546875 C 0.113281 -4.640625 0.140625 -4.722656 0.203125 -4.796875 C 0.265625 -4.867188 0.34375 -4.910156 0.4375 -4.921875 L 1.734375 -5.046875 L 2.125 -9.71875 C 2.144531 -9.800781 2.191406 -9.875 2.265625 -9.9375 C 2.335938 -10.007812 2.421875 -10.039062 2.515625 -10.03125 C 2.609375 -10.019531 2.679688 -9.976562 2.734375 -9.90625 C 2.796875 -9.84375 2.828125 -9.757812 2.828125 -9.65625 L 2.4375 -5.109375 Z M 3.578125 -5.203125 "/></g></g></g><g fill="#000000" fill-opacity="1"><g transform="translate(239.622827, 230.047085)"><g><path d="M 3.703125 -1.03125 C 3.773438 -1.070312 3.859375 -1.085938 3.953125 -1.078125 C 4.046875 -1.066406 4.125 -1.019531 4.1875 -0.9375 C 4.25 -0.851562 4.269531 -0.765625 4.25 -0.671875 C 4.226562 -0.585938 4.179688 -0.515625 4.109375 -0.453125 C 3.878906 -0.296875 3.597656 -0.148438 3.265625 -0.015625 C 2.941406 0.117188 2.585938 0.164062 2.203125 0.125 C 2.097656 0.125 2 0.109375 1.90625 0.078125 C 1.382812 -0.046875 1.007812 -0.34375 0.78125 -0.8125 C 0.644531 -1.09375 0.582031 -1.414062 0.59375 -1.78125 C 0.582031 -1.800781 0.582031 -1.828125 0.59375 -1.859375 C 0.59375 -1.859375 0.597656 -1.863281 0.609375 -1.875 C 0.628906 -2.195312 0.71875 -2.535156 0.875 -2.890625 C 1.050781 -3.234375 1.300781 -3.539062 1.625 -3.8125 C 1.945312 -4.082031 2.3125 -4.285156 2.71875 -4.421875 C 3.007812 -4.503906 3.28125 -4.539062 3.53125 -4.53125 C 3.789062 -4.519531 4.003906 -4.460938 4.171875 -4.359375 C 4.484375 -4.171875 4.640625 -3.910156 4.640625 -3.578125 C 4.640625 -3.328125 4.550781 -3.078125 4.375 -2.828125 C 4.195312 -2.578125 3.953125 -2.351562 3.640625 -2.15625 C 3.148438 -1.863281 2.703125 -1.664062 2.296875 -1.5625 C 1.890625 -1.46875 1.554688 -1.429688 1.296875 -1.453125 C 1.328125 -1.328125 1.359375 -1.21875 1.390625 -1.125 C 1.535156 -0.84375 1.753906 -0.671875 2.046875 -0.609375 C 2.367188 -0.523438 2.675781 -0.535156 2.96875 -0.640625 C 3.257812 -0.753906 3.503906 -0.882812 3.703125 -1.03125 Z M 1.515625 -2.59375 C 1.429688 -2.4375 1.367188 -2.273438 1.328125 -2.109375 C 1.546875 -2.117188 1.820312 -2.160156 2.15625 -2.234375 C 2.5 -2.316406 2.867188 -2.488281 3.265625 -2.75 C 3.492188 -2.894531 3.660156 -3.039062 3.765625 -3.1875 C 3.878906 -3.34375 3.941406 -3.472656 3.953125 -3.578125 C 3.941406 -3.597656 3.929688 -3.625 3.921875 -3.65625 C 3.910156 -3.695312 3.867188 -3.738281 3.796875 -3.78125 C 3.753906 -3.800781 3.679688 -3.816406 3.578125 -3.828125 C 3.492188 -3.835938 3.394531 -3.832031 3.28125 -3.8125 C 3.164062 -3.800781 3.039062 -3.78125 2.90625 -3.75 C 2.582031 -3.65625 2.300781 -3.503906 2.0625 -3.296875 C 1.820312 -3.097656 1.640625 -2.863281 1.515625 -2.59375 Z M 1.515625 -2.59375 "/></g></g></g><g fill="#000000" fill-opacity="1"><g transform="translate(243.967357, 230.408928)"><g><path d="M 5.421875 -3.125 C 5.484375 -3.050781 5.503906 -2.960938 5.484375 -2.859375 C 5.472656 -2.753906 5.4375 -2.679688 5.375 -2.640625 C 5.289062 -2.566406 5.203125 -2.535156 5.109375 -2.546875 C 5.015625 -2.566406 4.941406 -2.613281 4.890625 -2.6875 C 4.878906 -2.6875 4.816406 -2.726562 4.703125 -2.8125 C 4.597656 -2.894531 4.429688 -2.957031 4.203125 -3 C 3.984375 -3.039062 3.707031 -3 3.375 -2.875 C 3.207031 -2.820312 3.019531 -2.691406 2.8125 -2.484375 C 2.601562 -2.285156 2.394531 -2.046875 2.1875 -1.765625 C 1.988281 -1.484375 1.789062 -1.191406 1.59375 -0.890625 C 1.40625 -0.597656 1.253906 -0.335938 1.140625 -0.109375 C 1.054688 0.046875 0.921875 0.101562 0.734375 0.0625 C 0.703125 0.0507812 0.679688 0.0351562 0.671875 0.015625 C 0.597656 -0.015625 0.539062 -0.0703125 0.5 -0.15625 C 0.46875 -0.25 0.472656 -0.335938 0.515625 -0.421875 L 2.21875 -4.171875 C 2.25 -4.253906 2.3125 -4.3125 2.40625 -4.34375 C 2.5 -4.375 2.585938 -4.378906 2.671875 -4.359375 C 2.742188 -4.316406 2.796875 -4.25 2.828125 -4.15625 C 2.867188 -4.0625 2.875 -3.972656 2.84375 -3.890625 L 2.5 -3.140625 C 2.738281 -3.335938 2.957031 -3.46875 3.15625 -3.53125 C 3.53125 -3.664062 3.859375 -3.722656 4.140625 -3.703125 C 4.429688 -3.679688 4.664062 -3.625 4.84375 -3.53125 C 5.03125 -3.4375 5.171875 -3.34375 5.265625 -3.25 C 5.359375 -3.164062 5.410156 -3.125 5.421875 -3.125 Z M 5.421875 -3.125 "/></g></g></g><g fill="#000000" fill-opacity="1"><g transform="translate(247.892566, 231.419703)"><g><path d="M 6.1875 -2.125 C 6.257812 -2.070312 6.300781 -1.992188 6.3125 -1.890625 C 6.332031 -1.796875 6.3125 -1.710938 6.25 -1.640625 C 6.238281 -1.617188 6.140625 -1.476562 5.953125 -1.21875 C 5.773438 -0.957031 5.550781 -0.632812 5.28125 -0.25 C 5.019531 0.132812 4.734375 0.535156 4.421875 0.953125 C 4.117188 1.367188 3.835938 1.757812 3.578125 2.125 C 3.316406 2.488281 3.101562 2.78125 2.9375 3 C 2.707031 3.28125 2.429688 3.570312 2.109375 3.875 C 1.796875 4.1875 1.457031 4.453125 1.09375 4.671875 C 0.738281 4.890625 0.382812 5.015625 0.03125 5.046875 C -0.1875 5.054688 -0.4375 5.03125 -0.71875 4.96875 C -1.007812 4.90625 -1.273438 4.8125 -1.515625 4.6875 C -1.710938 4.59375 -1.890625 4.476562 -2.046875 4.34375 C -2.203125 4.21875 -2.304688 4.070312 -2.359375 3.90625 C -2.410156 3.832031 -2.421875 3.75 -2.390625 3.65625 C -2.359375 3.570312 -2.300781 3.503906 -2.21875 3.453125 C -2.132812 3.410156 -2.046875 3.40625 -1.953125 3.4375 C -1.867188 3.46875 -1.800781 3.53125 -1.75 3.625 C -1.6875 3.738281 -1.5625 3.851562 -1.375 3.96875 C -1.1875 4.09375 -0.96875 4.191406 -0.71875 4.265625 C -0.46875 4.335938 -0.234375 4.363281 -0.015625 4.34375 C 0.304688 4.3125 0.691406 4.128906 1.140625 3.796875 C 1.597656 3.472656 2.019531 3.0625 2.40625 2.5625 C 2.570312 2.351562 2.800781 2.039062 3.09375 1.625 C 3.382812 1.21875 3.6875 0.796875 4 0.359375 C 3.34375 0.773438 2.753906 0.988281 2.234375 1 C 1.773438 1 1.414062 0.875 1.15625 0.625 C 0.976562 0.425781 0.898438 0.179688 0.921875 -0.109375 C 0.941406 -0.398438 1.023438 -0.710938 1.171875 -1.046875 C 1.316406 -1.378906 1.492188 -1.707031 1.703125 -2.03125 C 1.921875 -2.351562 2.132812 -2.640625 2.34375 -2.890625 C 2.550781 -3.148438 2.71875 -3.351562 2.84375 -3.5 C 2.90625 -3.5625 2.984375 -3.597656 3.078125 -3.609375 C 3.171875 -3.617188 3.257812 -3.59375 3.34375 -3.53125 C 3.414062 -3.476562 3.453125 -3.398438 3.453125 -3.296875 C 3.460938 -3.203125 3.4375 -3.117188 3.375 -3.046875 C 2.9375 -2.535156 2.570312 -2.054688 2.28125 -1.609375 C 2 -1.171875 1.804688 -0.789062 1.703125 -0.46875 C 1.597656 -0.15625 1.585938 0.0390625 1.671875 0.125 C 1.742188 0.195312 1.832031 0.242188 1.9375 0.265625 C 2.039062 0.285156 2.132812 0.296875 2.21875 0.296875 C 2.289062 0.285156 2.425781 0.257812 2.625 0.21875 C 2.832031 0.175781 3.085938 0.078125 3.390625 -0.078125 C 3.691406 -0.234375 4.035156 -0.46875 4.421875 -0.78125 C 4.804688 -1.09375 5.238281 -1.519531 5.71875 -2.0625 C 5.78125 -2.125 5.851562 -2.160156 5.9375 -2.171875 C 6.03125 -2.179688 6.113281 -2.164062 6.1875 -2.125 Z M 6.1875 -2.125 "/></g></g></g></svg>