<svg xmlns="http://www.w3.org/2000/svg" xmlns:xlink="http://www.w3.org/1999/xlink" width="500" zoomAndPan="magnify" viewBox="0 0 375 374.999991" height="500" preserveAspectRatio="xMidYMid meet" version="1.0"><defs><g/><clipPath id="7efa113329"><path d="M 110 129 L 259 129 L 259 249.164062 L 110 249.164062 Z M 110 129 " clip-rule="nonzero"/></clipPath><clipPath id="3ecc79ae69"><path d="M 170.429688 145.84375 L 204.5625 145.84375 L 204.5625 179.351562 L 170.429688 179.351562 Z M 170.429688 145.84375 " clip-rule="nonzero"/></clipPath></defs><g clip-path="url(#7efa113329)"><path fill="#ffffff" d="M 252.253906 176.914062 C 245.015625 164.132812 235.125 153 223.472656 144.109375 C 211.976562 135.351562 197.027344 127.703125 181.878906 129.753906 C 174.203125 130.742188 166.566406 134.113281 161.25 139.941406 C 155.441406 145.847656 153.703125 154.613281 151.253906 162.695312 C 147.847656 165.144531 143.777344 166.835938 139.863281 168.285156 C 139.109375 168.5625 138.351562 168.839844 137.601562 169.113281 C 131.914062 171.183594 126.027344 173.328125 121.089844 177.308594 C 113.515625 183.4375 109.292969 193.640625 110.328125 203.304688 C 111.363281 212.988281 117.65625 222.066406 126.359375 226.4375 C 130.390625 228.46875 134.941406 229.496094 139.507812 229.496094 C 142.019531 229.496094 144.539062 229.160156 146.984375 228.539062 L 150.992188 249.40625 L 154.027344 248.636719 C 175.527344 243.199219 197.324219 243.199219 218.824219 248.636719 L 221.859375 249.40625 L 225.402344 230.96875 C 234.769531 231.359375 244.214844 227.527344 250.472656 220.429688 C 261.902344 207.617188 260.410156 190.910156 252.238281 176.90625 Z M 217.238281 242.171875 C 196.78125 237.476562 176.089844 237.476562 155.628906 242.171875 L 151.308594 219.671875 C 151.371094 219.683594 151.4375 219.703125 151.503906 219.71875 C 159.929688 221.648438 168.496094 218.070312 174.464844 212.3125 C 182.027344 211.6875 190.195312 211.664062 198.800781 212.25 C 205.734375 215.578125 213.109375 218.832031 221.054688 218.578125 C 221.300781 218.578125 221.546875 218.546875 221.792969 218.535156 L 217.25 242.171875 Z M 251.023438 204.960938 C 248.632812 216.324219 238.035156 224.574219 226.578125 224.9375 L 228.035156 217.382812 C 235.355469 215.011719 241.730469 209.285156 243.824219 202.128906 C 235.941406 211.113281 224.054688 215.050781 212.972656 210.875 C 207.375 209.023438 201.941406 205.753906 196.402344 203.429688 C 192.605469 201.914062 188.558594 201.011719 184.476562 200.832031 C 192.089844 192.121094 201.75 186.046875 212.949219 182.21875 C 200.640625 182.433594 188.257812 188.265625 179.449219 197 C 176.449219 199.882812 173.742188 202.839844 170.980469 205.421875 C 159.878906 217.023438 143.699219 215.746094 134.875 201.355469 C 135.101562 207.8125 139.199219 213.75 144.8125 217.121094 L 145.890625 222.734375 C 140.269531 224.269531 134.128906 223.71875 129.03125 221.152344 C 122.074219 217.660156 117.046875 210.402344 116.226562 202.671875 C 115.402344 194.949219 118.777344 186.796875 124.820312 181.898438 C 128.992188 178.539062 134.164062 176.652344 139.644531 174.660156 C 140.410156 174.382812 141.175781 174.097656 141.9375 173.820312 C 143.847656 173.109375 145.894531 172.304688 147.933594 171.359375 C 145.675781 175.714844 142.453125 179.292969 137.148438 181.253906 C 144.949219 181.9375 151.265625 175.214844 154.535156 168.761719 C 159.5 158.742188 160.183594 146.152344 170.703125 140.324219 C 186.710938 130.890625 205.640625 139.160156 219.078125 149.859375 C 233.582031 161.09375 255.597656 185.550781 251.042969 204.945312 Z M 251.023438 204.960938 " fill-opacity="1" fill-rule="nonzero"/></g><g clip-path="url(#3ecc79ae69)"><path fill="#ffffff" d="M 204.558594 163.050781 C 204.375 153.550781 196.515625 145.84375 187.015625 145.84375 C 178.710938 145.84375 171.898438 151.722656 170.429688 159.539062 C 170.949219 157.855469 171.960938 155.6875 173.933594 153.851562 C 177.796875 150.25 180.726562 149.859375 180.726562 149.859375 C 171.925781 154.492188 169.667969 165.476562 172.839844 172.03125 C 174.691406 174.960938 177.386719 177.3125 180.574219 178.746094 C 181.46875 178.960938 182.332031 178.996094 182.308594 177.796875 L 182.316406 177.796875 C 181.777344 175.738281 180.582031 171.800781 179.992188 171.246094 C 179.222656 170.527344 177.480469 170.914062 176.785156 170.042969 C 176.085938 169.167969 173.503906 158.105469 173.503906 158.105469 C 173.503906 158.105469 173.730469 157.839844 173.96875 157.933594 C 174.207031 158.042969 177.070312 167.902344 177.359375 168.125 C 177.648438 168.347656 177.597656 168.21875 177.761719 168.222656 C 177.882812 168.1875 178.058594 168.167969 178.09375 167.707031 C 178.128906 167.238281 174.933594 158.035156 174.925781 157.882812 C 174.914062 157.726562 174.875 157.242188 175.238281 157.308594 C 175.597656 157.367188 178.984375 166.941406 179.195312 167.179688 C 179.410156 167.417969 179.53125 167.359375 179.691406 167.347656 C 179.796875 167.257812 179.890625 167.253906 179.890625 166.949219 C 179.898438 166.65625 176.164062 157.183594 176.394531 156.910156 C 176.625 156.632812 176.921875 157.019531 177.015625 157.148438 C 177.109375 157.277344 180.75 166.332031 181.078125 166.65625 C 181.402344 166.980469 181.539062 166.894531 181.65625 166.851562 C 181.792969 166.734375 181.84375 166.855469 181.921875 166.503906 C 181.992188 166.144531 177.667969 156.816406 177.777344 156.589844 C 177.890625 156.363281 178.25 156.421875 178.25 156.421875 C 178.25 156.421875 183.554688 166.503906 183.605469 167.605469 C 183.65625 168.714844 182.050781 169.640625 181.949219 170.679688 C 181.863281 171.476562 183.75 175.789062 184.828125 178.003906 C 185.058594 178.421875 185.449219 178.988281 185.957031 179.207031 C 186.816406 179.574219 187.160156 179.226562 187.167969 178.363281 L 187.269531 168.632812 C 187.234375 168.304688 187.175781 167.980469 187.058594 167.742188 C 186.929688 167.488281 186.742188 167.296875 186.570312 167.167969 C 184.871094 166.597656 183.628906 164.949219 183.570312 162.019531 C 183.503906 158.308594 185.367188 153.933594 187.777344 153.933594 C 190.191406 153.933594 192.226562 158.308594 192.296875 162.019531 C 192.355469 164.785156 191.304688 166.402344 189.78125 167.058594 C 189.601562 167.214844 189.355469 167.460938 189.203125 167.757812 C 189.101562 167.964844 189.054688 168.332031 189.039062 168.691406 L 189.414062 178.167969 L 189.421875 178.167969 C 189.421875 178.167969 189.722656 179.113281 190.234375 179.082031 C 190.492188 179.070312 190.664062 178.746094 190.773438 178.433594 L 190.765625 178.433594 C 190.765625 178.433594 190.800781 178.304688 190.875 178.074219 C 190.902344 177.9375 190.917969 177.84375 190.917969 177.84375 L 190.9375 177.851562 C 191.824219 174.875 195.804688 161.429688 196.105469 160.121094 C 196.449219 158.644531 197.371094 155.277344 198.371094 155.847656 C 199.371094 156.414062 199.769531 160.667969 199.171875 165.316406 C 198.566406 169.964844 197.472656 172.722656 196.351562 173.878906 C 195.21875 175.03125 193.910156 174.253906 193.386719 175.695312 C 193.03125 176.671875 192.789062 177.765625 192.664062 178.378906 C 192.703125 178.578125 192.839844 179.039062 193.3125 179.113281 C 193.558594 179.15625 193.839844 179.097656 194.082031 179.027344 C 194.277344 178.9375 194.480469 178.859375 194.671875 178.765625 C 200.625 176.082031 204.695312 170.058594 204.558594 163.050781 " fill-opacity="1" fill-rule="evenodd"/></g><g fill="#ffffff" fill-opacity="1"><g transform="translate(106.287638, 272.72809)"><g><path d="M 1.625 -22.40625 L 8.125 -22.40625 C 11.238281 -22.40625 13.898438 -21.335938 16.109375 -19.203125 C 18.316406 -17.078125 19.421875 -14.414062 19.421875 -11.21875 C 19.421875 -7.988281 18.316406 -5.3125 16.109375 -3.1875 C 13.910156 -1.0625 11.25 0 8.125 0 L 1.625 0 Z M 6.734375 -4.5625 L 7.515625 -4.5625 C 9.378906 -4.5625 10.90625 -5.191406 12.09375 -6.453125 C 13.28125 -7.710938 13.882812 -9.289062 13.90625 -11.1875 C 13.90625 -13.09375 13.3125 -14.675781 12.125 -15.9375 C 10.9375 -17.207031 9.398438 -17.84375 7.515625 -17.84375 L 6.734375 -17.84375 Z M 6.734375 -4.5625 "/></g></g></g><g fill="#ffffff" fill-opacity="1"><g transform="translate(126.329841, 272.72809)"><g><path d="M 0.78125 -13.21875 L 0.78125 -18.28125 L 7.171875 -22.40625 L 9.59375 -22.40625 L 9.59375 0 L 4.484375 0 L 4.484375 -15.609375 Z M 0.78125 -13.21875 "/></g></g></g><g fill="#ffffff" fill-opacity="1"><g transform="translate(137.545868, 272.72809)"><g><path d="M 2.3125 -22.1875 C 2.78125 -22.601562 3.320312 -22.8125 3.9375 -22.8125 C 4.550781 -22.8125 5.09375 -22.601562 5.5625 -22.1875 C 6.03125 -21.769531 6.265625 -21.300781 6.265625 -20.78125 L 6.265625 -20.671875 C 6.265625 -20.304688 6.125 -19.472656 5.84375 -18.171875 C 5.570312 -16.878906 5.289062 -15.675781 5 -14.5625 L 4.59375 -12.90625 L 2.765625 -12.90625 C 2.003906 -17.25 1.625 -19.835938 1.625 -20.671875 L 1.625 -20.78125 C 1.625 -21.300781 1.851562 -21.769531 2.3125 -22.1875 Z M 2.3125 -22.1875 "/></g></g></g><g fill="#ffffff" fill-opacity="1"><g transform="translate(145.448689, 272.72809)"><g><path d="M 7.6875 -14.34375 C 8.476562 -14.34375 9.265625 -14.25 10.046875 -14.0625 C 10.828125 -13.882812 11.40625 -13.707031 11.78125 -13.53125 L 12.359375 -13.25 L 10.78125 -10.109375 C 9.695312 -10.679688 8.664062 -10.96875 7.6875 -10.96875 C 7.144531 -10.96875 6.757812 -10.910156 6.53125 -10.796875 C 6.300781 -10.679688 6.1875 -10.457031 6.1875 -10.125 C 6.1875 -10.050781 6.195312 -9.976562 6.21875 -9.90625 C 6.238281 -9.832031 6.273438 -9.765625 6.328125 -9.703125 C 6.378906 -9.640625 6.425781 -9.585938 6.46875 -9.546875 C 6.519531 -9.503906 6.597656 -9.453125 6.703125 -9.390625 C 6.816406 -9.335938 6.90625 -9.296875 6.96875 -9.265625 C 7.03125 -9.242188 7.132812 -9.203125 7.28125 -9.140625 C 7.425781 -9.085938 7.535156 -9.046875 7.609375 -9.015625 C 7.679688 -8.992188 7.800781 -8.957031 7.96875 -8.90625 C 8.144531 -8.851562 8.273438 -8.816406 8.359375 -8.796875 C 8.921875 -8.628906 9.410156 -8.445312 9.828125 -8.25 C 10.242188 -8.050781 10.679688 -7.78125 11.140625 -7.4375 C 11.609375 -7.09375 11.96875 -6.65625 12.21875 -6.125 C 12.46875 -5.601562 12.59375 -5.007812 12.59375 -4.34375 C 12.59375 -1.175781 10.394531 0.40625 6 0.40625 C 5.007812 0.40625 4.0625 0.253906 3.15625 -0.046875 C 2.257812 -0.359375 1.613281 -0.671875 1.21875 -0.984375 L 0.625 -1.46875 L 2.578125 -4.75 C 2.722656 -4.625 2.910156 -4.472656 3.140625 -4.296875 C 3.378906 -4.128906 3.804688 -3.894531 4.421875 -3.59375 C 5.035156 -3.300781 5.570312 -3.15625 6.03125 -3.15625 C 7.019531 -3.15625 7.515625 -3.488281 7.515625 -4.15625 C 7.515625 -4.457031 7.390625 -4.691406 7.140625 -4.859375 C 6.890625 -5.035156 6.457031 -5.234375 5.84375 -5.453125 C 5.238281 -5.671875 4.765625 -5.875 4.421875 -6.0625 C 3.554688 -6.507812 2.867188 -7.019531 2.359375 -7.59375 C 1.859375 -8.164062 1.609375 -8.921875 1.609375 -9.859375 C 1.609375 -11.265625 2.15625 -12.363281 3.25 -13.15625 C 4.34375 -13.945312 5.820312 -14.34375 7.6875 -14.34375 Z M 7.6875 -14.34375 "/></g></g></g><g fill="#ffffff" fill-opacity="1"><g transform="translate(158.810158, 272.72809)"><g/></g></g><g fill="#ffffff" fill-opacity="1"><g transform="translate(166.22414, 272.72809)"><g><path d="M 1.625 -22.40625 L 8.578125 -22.40625 C 10.679688 -22.40625 12.359375 -21.957031 13.609375 -21.0625 C 14.859375 -20.164062 15.484375 -18.710938 15.484375 -16.703125 C 15.484375 -14.453125 14.550781 -12.847656 12.6875 -11.890625 C 15.875 -11.328125 17.46875 -9.445312 17.46875 -6.25 C 17.46875 -4.363281 16.8125 -2.847656 15.5 -1.703125 C 14.195312 -0.566406 12.40625 0 10.125 0 L 1.625 0 Z M 6.734375 -13.625 L 7.140625 -13.625 C 8.285156 -13.625 9.132812 -13.820312 9.6875 -14.21875 C 10.25 -14.625 10.53125 -15.28125 10.53125 -16.1875 C 10.53125 -17.707031 9.398438 -18.46875 7.140625 -18.46875 L 6.734375 -18.46875 Z M 6.734375 -3.9375 L 8.34375 -3.9375 C 10.832031 -3.9375 12.078125 -4.769531 12.078125 -6.4375 C 12.078125 -7.425781 11.765625 -8.140625 11.140625 -8.578125 C 10.515625 -9.015625 9.582031 -9.234375 8.34375 -9.234375 L 6.734375 -9.234375 Z M 6.734375 -3.9375 "/></g></g></g><g fill="#ffffff" fill-opacity="1"><g transform="translate(184.311008, 272.72809)"><g><path d="M 1.625 0 L 1.625 -13.9375 L 6.4375 -13.9375 L 6.4375 -11.921875 L 6.484375 -11.921875 C 6.523438 -11.992188 6.585938 -12.082031 6.671875 -12.1875 C 6.753906 -12.300781 6.929688 -12.492188 7.203125 -12.765625 C 7.472656 -13.035156 7.757812 -13.28125 8.0625 -13.5 C 8.375 -13.71875 8.773438 -13.910156 9.265625 -14.078125 C 9.753906 -14.253906 10.25 -14.34375 10.75 -14.34375 C 11.28125 -14.34375 11.796875 -14.269531 12.296875 -14.125 C 12.804688 -13.976562 13.179688 -13.832031 13.421875 -13.6875 L 13.796875 -13.46875 L 11.78125 -9.390625 C 11.1875 -9.898438 10.351562 -10.15625 9.28125 -10.15625 C 8.707031 -10.15625 8.210938 -10.023438 7.796875 -9.765625 C 7.378906 -9.515625 7.082031 -9.207031 6.90625 -8.84375 C 6.738281 -8.488281 6.617188 -8.179688 6.546875 -7.921875 C 6.472656 -7.671875 6.4375 -7.472656 6.4375 -7.328125 L 6.4375 0 Z M 1.625 0 "/></g></g></g><g fill="#ffffff" fill-opacity="1"><g transform="translate(197.835418, 272.72809)"><g><path d="M 6.171875 -13.9375 L 6.171875 -7.3125 C 6.171875 -5.925781 6.375 -4.941406 6.78125 -4.359375 C 7.195312 -3.785156 7.90625 -3.5 8.90625 -3.5 C 9.90625 -3.5 10.613281 -3.785156 11.03125 -4.359375 C 11.445312 -4.941406 11.65625 -5.925781 11.65625 -7.3125 L 11.65625 -13.9375 L 16.453125 -13.9375 L 16.453125 -6.140625 C 16.453125 -3.816406 15.847656 -2.144531 14.640625 -1.125 C 13.441406 -0.101562 11.53125 0.40625 8.90625 0.40625 C 6.28125 0.40625 4.363281 -0.101562 3.15625 -1.125 C 1.957031 -2.144531 1.359375 -3.816406 1.359375 -6.140625 L 1.359375 -13.9375 Z M 6.171875 -13.9375 "/></g></g></g><g fill="#ffffff" fill-opacity="1"><g transform="translate(215.650712, 272.72809)"><g><path d="M 1.625 0 L 1.625 -13.9375 L 6.4375 -13.9375 L 6.4375 -12.46875 L 6.484375 -12.46875 C 7.734375 -13.71875 9.066406 -14.34375 10.484375 -14.34375 C 11.171875 -14.34375 11.851562 -14.25 12.53125 -14.0625 C 13.207031 -13.882812 13.859375 -13.601562 14.484375 -13.21875 C 15.109375 -12.84375 15.613281 -12.304688 16 -11.609375 C 16.394531 -10.910156 16.59375 -10.097656 16.59375 -9.171875 L 16.59375 0 L 11.78125 0 L 11.78125 -7.875 C 11.78125 -8.601562 11.550781 -9.238281 11.09375 -9.78125 C 10.632812 -10.320312 10.03125 -10.59375 9.28125 -10.59375 C 8.5625 -10.59375 7.90625 -10.3125 7.3125 -9.75 C 6.726562 -9.1875 6.4375 -8.5625 6.4375 -7.875 L 6.4375 0 Z M 1.625 0 "/></g></g></g><g fill="#ffffff" fill-opacity="1"><g transform="translate(233.60179, 272.72809)"><g><path d="M 9.046875 -10.40625 C 8.140625 -10.40625 7.359375 -10.066406 6.703125 -9.390625 C 6.054688 -8.722656 5.734375 -7.921875 5.734375 -6.984375 C 5.734375 -6.023438 6.054688 -5.207031 6.703125 -4.53125 C 7.359375 -3.863281 8.140625 -3.53125 9.046875 -3.53125 C 9.472656 -3.53125 9.878906 -3.582031 10.265625 -3.6875 C 10.660156 -3.800781 10.953125 -3.910156 11.140625 -4.015625 L 11.375 -4.1875 L 13.015625 -0.84375 C 12.878906 -0.75 12.695312 -0.632812 12.46875 -0.5 C 12.25 -0.363281 11.734375 -0.179688 10.921875 0.046875 C 10.117188 0.285156 9.257812 0.40625 8.34375 0.40625 C 6.289062 0.40625 4.488281 -0.3125 2.9375 -1.75 C 1.394531 -3.1875 0.625 -4.910156 0.625 -6.921875 C 0.625 -8.953125 1.394531 -10.695312 2.9375 -12.15625 C 4.488281 -13.613281 6.289062 -14.34375 8.34375 -14.34375 C 9.257812 -14.34375 10.109375 -14.234375 10.890625 -14.015625 C 11.671875 -13.796875 12.222656 -13.578125 12.546875 -13.359375 L 13.015625 -13.03125 L 11.375 -9.75 C 10.78125 -10.1875 10.003906 -10.40625 9.046875 -10.40625 Z M 9.046875 -10.40625 "/></g></g></g><g fill="#ffffff" fill-opacity="1"><g transform="translate(246.9361, 272.72809)"><g><path d="M 1.625 0 L 1.625 -23.359375 L 6.4375 -23.359375 L 6.4375 -12.46875 L 6.484375 -12.46875 C 7.734375 -13.71875 9.066406 -14.34375 10.484375 -14.34375 C 11.171875 -14.34375 11.851562 -14.25 12.53125 -14.0625 C 13.207031 -13.882812 13.859375 -13.601562 14.484375 -13.21875 C 15.109375 -12.84375 15.613281 -12.304688 16 -11.609375 C 16.394531 -10.910156 16.59375 -10.097656 16.59375 -9.171875 L 16.59375 0 L 11.78125 0 L 11.78125 -7.875 C 11.78125 -8.601562 11.550781 -9.238281 11.09375 -9.78125 C 10.632812 -10.320312 10.03125 -10.59375 9.28125 -10.59375 C 8.5625 -10.59375 7.90625 -10.3125 7.3125 -9.75 C 6.726562 -9.1875 6.4375 -8.5625 6.4375 -7.875 L 6.4375 0 Z M 1.625 0 "/></g></g></g><g fill="#ffffff" fill-opacity="1"><g transform="translate(239.391631, 245.767381)"><g><path d="M 2.59375 -2.84375 C 2.632812 -2.914062 2.695312 -2.96875 2.78125 -3 C 2.863281 -3.039062 2.953125 -3.046875 3.046875 -3.015625 C 3.140625 -2.984375 3.203125 -2.921875 3.234375 -2.828125 C 3.273438 -2.742188 3.273438 -2.65625 3.234375 -2.5625 C 3.128906 -2.3125 2.972656 -2.046875 2.765625 -1.765625 C 2.554688 -1.484375 2.28125 -1.253906 1.9375 -1.078125 C 1.851562 -1.023438 1.753906 -0.976562 1.640625 -0.9375 C 1.140625 -0.769531 0.664062 -0.828125 0.21875 -1.109375 C -0.03125 -1.273438 -0.25 -1.507812 -0.4375 -1.8125 C -0.457031 -1.820312 -0.472656 -1.84375 -0.484375 -1.875 C -0.484375 -1.875 -0.484375 -1.882812 -0.484375 -1.90625 C -0.640625 -2.1875 -0.742188 -2.519531 -0.796875 -2.90625 C -0.835938 -3.289062 -0.789062 -3.679688 -0.65625 -4.078125 C -0.53125 -4.484375 -0.320312 -4.851562 -0.03125 -5.1875 C 0.164062 -5.40625 0.375 -5.582031 0.59375 -5.71875 C 0.8125 -5.851562 1.019531 -5.914062 1.21875 -5.90625 C 1.582031 -5.914062 1.851562 -5.78125 2.03125 -5.5 C 2.15625 -5.289062 2.207031 -5.03125 2.1875 -4.71875 C 2.175781 -4.414062 2.09375 -4.097656 1.9375 -3.765625 C 1.6875 -3.242188 1.410156 -2.832031 1.109375 -2.53125 C 0.804688 -2.238281 0.546875 -2.03125 0.328125 -1.90625 C 0.410156 -1.820312 0.492188 -1.742188 0.578125 -1.671875 C 0.835938 -1.523438 1.113281 -1.503906 1.40625 -1.609375 C 1.726562 -1.703125 1.984375 -1.875 2.171875 -2.125 C 2.367188 -2.375 2.507812 -2.613281 2.59375 -2.84375 Z M -0.09375 -3 C -0.0820312 -2.832031 -0.0507812 -2.660156 0 -2.484375 C 0.175781 -2.609375 0.382812 -2.796875 0.625 -3.046875 C 0.875 -3.304688 1.101562 -3.648438 1.3125 -4.078125 C 1.414062 -4.328125 1.476562 -4.539062 1.5 -4.71875 C 1.519531 -4.90625 1.503906 -5.046875 1.453125 -5.140625 C 1.429688 -5.140625 1.40625 -5.15625 1.375 -5.1875 C 1.34375 -5.21875 1.289062 -5.226562 1.21875 -5.21875 C 1.164062 -5.21875 1.09375 -5.191406 1 -5.140625 C 0.925781 -5.109375 0.84375 -5.054688 0.75 -4.984375 C 0.664062 -4.910156 0.578125 -4.820312 0.484375 -4.71875 C 0.253906 -4.476562 0.0859375 -4.203125 -0.015625 -3.890625 C -0.117188 -3.585938 -0.144531 -3.289062 -0.09375 -3 Z M -0.09375 -3 "/></g></g></g><g fill="#ffffff" fill-opacity="1"><g transform="translate(243.225506, 243.73914)"><g><path d="M 3.078125 -5.75 C 3.171875 -5.738281 3.25 -5.707031 3.3125 -5.65625 C 3.375 -5.601562 3.410156 -5.535156 3.421875 -5.453125 L 3.953125 -1.359375 C 3.953125 -1.265625 3.921875 -1.179688 3.859375 -1.109375 C 3.804688 -1.035156 3.738281 -0.992188 3.65625 -0.984375 C 3.550781 -0.960938 3.457031 -0.984375 3.375 -1.046875 C 3.300781 -1.109375 3.265625 -1.1875 3.265625 -1.28125 L 3.015625 -3.296875 C 2.890625 -2.859375 2.742188 -2.421875 2.578125 -1.984375 C 2.410156 -1.546875 2.207031 -1.171875 1.96875 -0.859375 C 1.738281 -0.546875 1.472656 -0.347656 1.171875 -0.265625 C 1.117188 -0.253906 1.066406 -0.242188 1.015625 -0.234375 C 0.679688 -0.203125 0.40625 -0.359375 0.1875 -0.703125 C 0.03125 -0.941406 -0.0664062 -1.273438 -0.109375 -1.703125 C -0.160156 -2.140625 -0.128906 -2.601562 -0.015625 -3.09375 C 0.0859375 -3.59375 0.28125 -4.0625 0.5625 -4.5 C 0.90625 -5.03125 1.320312 -5.328125 1.8125 -5.390625 C 1.988281 -5.410156 2.148438 -5.398438 2.296875 -5.359375 C 2.453125 -5.328125 2.585938 -5.28125 2.703125 -5.21875 C 2.722656 -5.28125 2.734375 -5.359375 2.734375 -5.453125 C 2.773438 -5.648438 2.890625 -5.75 3.078125 -5.75 Z M 0.921875 -0.921875 C 1.140625 -0.972656 1.410156 -1.285156 1.734375 -1.859375 C 2.066406 -2.429688 2.347656 -3.3125 2.578125 -4.5 C 2.492188 -4.550781 2.390625 -4.597656 2.265625 -4.640625 C 2.148438 -4.691406 2.023438 -4.707031 1.890625 -4.6875 C 1.859375 -4.6875 1.828125 -4.679688 1.796875 -4.671875 C 1.566406 -4.609375 1.347656 -4.425781 1.140625 -4.125 C 0.910156 -3.738281 0.75 -3.34375 0.65625 -2.9375 C 0.5625 -2.53125 0.53125 -2.15625 0.5625 -1.8125 C 0.601562 -1.476562 0.671875 -1.222656 0.765625 -1.046875 C 0.785156 -1.023438 0.8125 -0.992188 0.84375 -0.953125 C 0.875 -0.921875 0.898438 -0.910156 0.921875 -0.921875 Z M 0.921875 -0.921875 "/></g></g></g><g fill="#ffffff" fill-opacity="1"><g transform="translate(247.803485, 242.448872)"><g><path d="M 3.578125 -5.203125 C 3.671875 -5.210938 3.753906 -5.1875 3.828125 -5.125 C 3.898438 -5.0625 3.941406 -4.984375 3.953125 -4.890625 C 3.960938 -4.796875 3.9375 -4.710938 3.875 -4.640625 C 3.8125 -4.566406 3.734375 -4.523438 3.640625 -4.515625 L 2.375 -4.40625 L 2.046875 -0.59375 C 2.023438 -0.394531 1.921875 -0.285156 1.734375 -0.265625 C 1.710938 -0.265625 1.691406 -0.269531 1.671875 -0.28125 C 1.578125 -0.28125 1.5 -0.316406 1.4375 -0.390625 C 1.382812 -0.460938 1.359375 -0.546875 1.359375 -0.640625 L 1.671875 -4.34375 L 0.5 -4.234375 C 0.40625 -4.222656 0.320312 -4.25 0.25 -4.3125 C 0.175781 -4.375 0.132812 -4.453125 0.125 -4.546875 C 0.113281 -4.640625 0.140625 -4.722656 0.203125 -4.796875 C 0.265625 -4.867188 0.34375 -4.910156 0.4375 -4.921875 L 1.734375 -5.046875 L 2.125 -9.71875 C 2.144531 -9.800781 2.191406 -9.875 2.265625 -9.9375 C 2.335938 -10.007812 2.421875 -10.039062 2.515625 -10.03125 C 2.609375 -10.019531 2.679688 -9.976562 2.734375 -9.90625 C 2.796875 -9.84375 2.828125 -9.757812 2.828125 -9.65625 L 2.4375 -5.109375 Z M 3.578125 -5.203125 "/></g></g></g><g fill="#ffffff" fill-opacity="1"><g transform="translate(251.622841, 242.04707)"><g><path d="M 3.703125 -1.03125 C 3.773438 -1.070312 3.859375 -1.085938 3.953125 -1.078125 C 4.046875 -1.066406 4.125 -1.019531 4.1875 -0.9375 C 4.25 -0.851562 4.269531 -0.765625 4.25 -0.671875 C 4.226562 -0.585938 4.179688 -0.515625 4.109375 -0.453125 C 3.878906 -0.296875 3.597656 -0.148438 3.265625 -0.015625 C 2.941406 0.117188 2.585938 0.164062 2.203125 0.125 C 2.097656 0.125 2 0.109375 1.90625 0.078125 C 1.382812 -0.046875 1.007812 -0.34375 0.78125 -0.8125 C 0.644531 -1.09375 0.582031 -1.414062 0.59375 -1.78125 C 0.582031 -1.800781 0.582031 -1.828125 0.59375 -1.859375 C 0.59375 -1.859375 0.597656 -1.863281 0.609375 -1.875 C 0.628906 -2.195312 0.71875 -2.535156 0.875 -2.890625 C 1.050781 -3.234375 1.300781 -3.539062 1.625 -3.8125 C 1.945312 -4.082031 2.3125 -4.285156 2.71875 -4.421875 C 3.007812 -4.503906 3.28125 -4.539062 3.53125 -4.53125 C 3.789062 -4.519531 4.003906 -4.460938 4.171875 -4.359375 C 4.484375 -4.171875 4.640625 -3.910156 4.640625 -3.578125 C 4.640625 -3.328125 4.550781 -3.078125 4.375 -2.828125 C 4.195312 -2.578125 3.953125 -2.351562 3.640625 -2.15625 C 3.148438 -1.863281 2.703125 -1.664062 2.296875 -1.5625 C 1.890625 -1.46875 1.554688 -1.429688 1.296875 -1.453125 C 1.328125 -1.328125 1.359375 -1.21875 1.390625 -1.125 C 1.535156 -0.84375 1.753906 -0.671875 2.046875 -0.609375 C 2.367188 -0.523438 2.675781 -0.535156 2.96875 -0.640625 C 3.257812 -0.753906 3.503906 -0.882812 3.703125 -1.03125 Z M 1.515625 -2.59375 C 1.429688 -2.4375 1.367188 -2.273438 1.328125 -2.109375 C 1.546875 -2.117188 1.820312 -2.160156 2.15625 -2.234375 C 2.5 -2.316406 2.867188 -2.488281 3.265625 -2.75 C 3.492188 -2.894531 3.660156 -3.039062 3.765625 -3.1875 C 3.878906 -3.34375 3.941406 -3.472656 3.953125 -3.578125 C 3.941406 -3.597656 3.929688 -3.625 3.921875 -3.65625 C 3.910156 -3.695312 3.867188 -3.738281 3.796875 -3.78125 C 3.753906 -3.800781 3.679688 -3.816406 3.578125 -3.828125 C 3.492188 -3.835938 3.394531 -3.832031 3.28125 -3.8125 C 3.164062 -3.800781 3.039062 -3.78125 2.90625 -3.75 C 2.582031 -3.65625 2.300781 -3.503906 2.0625 -3.296875 C 1.820312 -3.097656 1.640625 -2.863281 1.515625 -2.59375 Z M 1.515625 -2.59375 "/></g></g></g><g fill="#ffffff" fill-opacity="1"><g transform="translate(255.967356, 242.408956)"><g><path d="M 5.421875 -3.125 C 5.484375 -3.050781 5.503906 -2.960938 5.484375 -2.859375 C 5.472656 -2.753906 5.4375 -2.679688 5.375 -2.640625 C 5.289062 -2.566406 5.203125 -2.535156 5.109375 -2.546875 C 5.015625 -2.566406 4.941406 -2.613281 4.890625 -2.6875 C 4.878906 -2.6875 4.816406 -2.726562 4.703125 -2.8125 C 4.597656 -2.894531 4.429688 -2.957031 4.203125 -3 C 3.984375 -3.039062 3.707031 -3 3.375 -2.875 C 3.207031 -2.820312 3.019531 -2.691406 2.8125 -2.484375 C 2.601562 -2.285156 2.394531 -2.046875 2.1875 -1.765625 C 1.988281 -1.484375 1.789062 -1.191406 1.59375 -0.890625 C 1.40625 -0.597656 1.253906 -0.335938 1.140625 -0.109375 C 1.054688 0.046875 0.921875 0.101562 0.734375 0.0625 C 0.703125 0.0507812 0.679688 0.0351562 0.671875 0.015625 C 0.597656 -0.015625 0.539062 -0.0703125 0.5 -0.15625 C 0.46875 -0.25 0.472656 -0.335938 0.515625 -0.421875 L 2.21875 -4.171875 C 2.25 -4.253906 2.3125 -4.3125 2.40625 -4.34375 C 2.5 -4.375 2.585938 -4.378906 2.671875 -4.359375 C 2.742188 -4.316406 2.796875 -4.25 2.828125 -4.15625 C 2.867188 -4.0625 2.875 -3.972656 2.84375 -3.890625 L 2.5 -3.140625 C 2.738281 -3.335938 2.957031 -3.46875 3.15625 -3.53125 C 3.53125 -3.664062 3.859375 -3.722656 4.140625 -3.703125 C 4.429688 -3.679688 4.664062 -3.625 4.84375 -3.53125 C 5.03125 -3.4375 5.171875 -3.34375 5.265625 -3.25 C 5.359375 -3.164062 5.410156 -3.125 5.421875 -3.125 Z M 5.421875 -3.125 "/></g></g></g><g fill="#ffffff" fill-opacity="1"><g transform="translate(259.892566, 243.419702)"><g><path d="M 6.1875 -2.125 C 6.257812 -2.070312 6.300781 -1.992188 6.3125 -1.890625 C 6.332031 -1.796875 6.3125 -1.710938 6.25 -1.640625 C 6.238281 -1.617188 6.140625 -1.476562 5.953125 -1.21875 C 5.773438 -0.957031 5.550781 -0.632812 5.28125 -0.25 C 5.019531 0.132812 4.734375 0.535156 4.421875 0.953125 C 4.117188 1.367188 3.835938 1.757812 3.578125 2.125 C 3.316406 2.488281 3.101562 2.78125 2.9375 3 C 2.707031 3.28125 2.429688 3.570312 2.109375 3.875 C 1.796875 4.1875 1.457031 4.453125 1.09375 4.671875 C 0.738281 4.890625 0.382812 5.015625 0.03125 5.046875 C -0.1875 5.054688 -0.4375 5.03125 -0.71875 4.96875 C -1.007812 4.90625 -1.273438 4.8125 -1.515625 4.6875 C -1.710938 4.59375 -1.890625 4.476562 -2.046875 4.34375 C -2.203125 4.21875 -2.304688 4.070312 -2.359375 3.90625 C -2.410156 3.832031 -2.421875 3.75 -2.390625 3.65625 C -2.359375 3.570312 -2.300781 3.503906 -2.21875 3.453125 C -2.132812 3.410156 -2.046875 3.40625 -1.953125 3.4375 C -1.867188 3.46875 -1.800781 3.53125 -1.75 3.625 C -1.6875 3.738281 -1.5625 3.851562 -1.375 3.96875 C -1.1875 4.09375 -0.96875 4.191406 -0.71875 4.265625 C -0.46875 4.335938 -0.234375 4.363281 -0.015625 4.34375 C 0.304688 4.3125 0.691406 4.128906 1.140625 3.796875 C 1.597656 3.472656 2.019531 3.0625 2.40625 2.5625 C 2.570312 2.351562 2.800781 2.039062 3.09375 1.625 C 3.382812 1.21875 3.6875 0.796875 4 0.359375 C 3.34375 0.773438 2.753906 0.988281 2.234375 1 C 1.773438 1 1.414062 0.875 1.15625 0.625 C 0.976562 0.425781 0.898438 0.179688 0.921875 -0.109375 C 0.941406 -0.398438 1.023438 -0.710938 1.171875 -1.046875 C 1.316406 -1.378906 1.492188 -1.707031 1.703125 -2.03125 C 1.921875 -2.351562 2.132812 -2.640625 2.34375 -2.890625 C 2.550781 -3.148438 2.71875 -3.351562 2.84375 -3.5 C 2.90625 -3.5625 2.984375 -3.597656 3.078125 -3.609375 C 3.171875 -3.617188 3.257812 -3.59375 3.34375 -3.53125 C 3.414062 -3.476562 3.453125 -3.398438 3.453125 -3.296875 C 3.460938 -3.203125 3.4375 -3.117188 3.375 -3.046875 C 2.9375 -2.535156 2.570312 -2.054688 2.28125 -1.609375 C 2 -1.171875 1.804688 -0.789062 1.703125 -0.46875 C 1.597656 -0.15625 1.585938 0.0390625 1.671875 0.125 C 1.742188 0.195312 1.832031 0.242188 1.9375 0.265625 C 2.039062 0.285156 2.132812 0.296875 2.21875 0.296875 C 2.289062 0.285156 2.425781 0.257812 2.625 0.21875 C 2.832031 0.175781 3.085938 0.078125 3.390625 -0.078125 C 3.691406 -0.234375 4.035156 -0.46875 4.421875 -0.78125 C 4.804688 -1.09375 5.238281 -1.519531 5.71875 -2.0625 C 5.78125 -2.125 5.851562 -2.160156 5.9375 -2.171875 C 6.03125 -2.179688 6.113281 -2.164062 6.1875 -2.125 Z M 6.1875 -2.125 "/></g></g></g></svg>